<svg height="32" viewBox="0 0 32 32" width="32" xmlns="http://www.w3.org/2000/svg"><path d="m21 18h-2v-8h-6v8h-2v-8a2.0021 2.0021 0 0 1 2-2h6a2.0021 2.0021 0 0 1 2 2zm-4-2h-2v2h2zm0-4h-2v2h2z" fill="none"/><path d="m16 2a11.0134 11.0134 0 0 0 -11 11 10.8885 10.8885 0 0 0 2.2163 6.6s.3.3945.3482.4517l8.4355 9.9483 8.439-9.9526c.0444-.0533.3447-.4478.3447-.4478l.0015-.0024a10.8846 10.8846 0 0 0 2.2148-6.5972 11.0134 11.0134 0 0 0 -11-11zm1 16h-2v-2h2zm0-4h-2v-2h2zm4 4h-2v-8h-6v8h-2v-8a2.0023 2.0023 0 0 1 2-2h6a2.0023 2.0023 0 0 1 2 2z"/><path d="m0 0h32v32h-32z" fill="none"/></svg>